<?xml version="1.0" encoding="utf-8"?>
<!-- Generator: Adobe Illustrator 16.0.0, SVG Export Plug-In . SVG Version: 6.00 Build 0)  -->
<!DOCTYPE svg PUBLIC "-//W3C//DTD SVG 1.1//EN" "http://www.w3.org/Graphics/SVG/1.1/DTD/svg11.dtd">
<svg version="1.1" id="Layer_1" xmlns="http://www.w3.org/2000/svg" xmlns:xlink="http://www.w3.org/1999/xlink" x="0px" y="0px"
	 width="1024px" height="1024px" viewBox="0 0 1024 1024" enable-background="new 0 0 1024 1024" xml:space="preserve">
<g id="Layer_2" display="none">
	
		<image display="inline" overflow="visible" enable-background="new    " width="270" height="244" xlink:href="1AE509E6.jpeg"  transform="matrix(0.9962 0 0 0.9958 385.4844 311.5107)">
	</image>
</g>
<path d="M933.76,537.54c0,0-172.689,0-304.72,0C605.32,537.54,512,976.5,512,976.5s-93.32-438.96-117.04-438.96
	c-132.03,0-304.72,0-304.72,0V0h843.51v537.54H933.76z"/>
<g id="Layer_4">
</g>
<g>
	<path fill="#319FA5" d="M281.074,191.526V303.37c0,15.723,3.755,26.783,11.284,33.182c7.522,6.401,18.3,9.602,32.338,9.602
		c14.033,0,24.93-3.479,32.678-10.442c7.749-6.959,11.622-17.182,11.622-30.657V181.758l-19.537-1.012v-28.635h79.839V179.4
		l-11.117,1.01c-6.517,0.673-9.769,4.042-9.769,10.105v120.266c0,21.787-7.639,38.857-22.909,51.206
		c-15.276,12.354-36.382,18.528-63.331,18.528c-26.954,0-47.333-6.005-61.144-18.022c-13.813-12.012-20.719-31.045-20.719-57.101
		V181.758l-19.539-1.012v-28.635h81.524V179.4l-11.117,1.01c-3.595,0.452-6.18,1.405-7.748,2.863
		C281.855,184.736,281.074,187.484,281.074,191.526z"/>
	<path fill="#319FA5" d="M448.5,152.111h94.998c48.51,0,72.766,18.755,72.766,56.259c0,20.666-10.332,36.383-30.992,47.163
		c13.252,3.369,23.636,9.549,31.162,18.529c7.521,8.985,11.284,20.665,11.284,35.036c0,21.786-7.357,38.404-22.066,49.857
		c-14.709,11.455-36.103,17.181-64.174,17.181h-94.663V348.85l11.117-1.01c6.511-0.675,9.769-3.817,9.769-9.434V181.758l-19.2-1.012
		V152.111z M508.8,183.104v60.976h24.93c13.923,0,24.196-2.863,30.823-8.591c6.623-5.727,9.939-13.753,9.939-24.086
		c0-10.328-3.316-17.629-9.939-21.897c-6.627-4.264-16.116-6.401-28.466-6.401H508.8z M508.8,274.062v70.407h31.666
		c29.195,0,43.795-11.901,43.795-35.709c0-11.228-3.654-19.818-10.947-25.771c-7.302-5.947-17.686-8.927-31.162-8.927H508.8z"/>
	<path fill="#319FA5" d="M719.346,345.817c26.951,0,40.426-10.781,40.426-32.341c0-11.228-5.955-19.539-17.855-24.929
		c-6.29-3.143-14.433-6.063-24.424-8.759c-9.996-2.695-18.305-5.442-24.928-8.254c-6.626-2.804-13.308-6.679-20.044-11.621
		c-13.254-9.88-19.875-25.098-19.875-45.647c0-20.55,7.125-36.719,21.391-48.511c14.259-11.79,32.898-17.685,55.92-17.685
		c23.02,0,44.412,4.605,64.175,13.812v50.531l-34.359,2.358v-19.539c0-3.368-0.452-5.837-1.349-7.411
		c-2.474-4.264-10.39-6.4-23.749-6.4c-13.365,0-23.244,2.358-29.646,7.074c-6.401,4.716-9.603,12.017-9.603,21.897
		c0,7.189,2.696,13.476,8.088,18.864c3.588,3.596,8.927,6.569,15.999,8.928c7.075,2.357,14.598,4.775,22.573,7.243
		c7.968,2.474,15.043,5.168,21.222,8.085c6.176,2.921,12.633,6.964,19.37,12.127c13.697,10.106,20.552,25.719,20.552,46.827
		c0,21.112-7.581,37.731-22.742,49.857c-15.156,12.127-35.149,18.191-59.964,18.191c-24.816,0-47.111-4.6-66.868-13.812v-53.227
		l34.36-2.358v20.55c0,3.369,0.446,5.843,1.348,7.412c0.894,1.573,3.647,3.09,8.253,4.548
		C702.219,345.091,709.461,345.817,719.346,345.817z"/>
</g>
</svg>
